<svg width="133" height="38" viewBox="0 0 133 38" fill="none" xmlns="http://www.w3.org/2000/svg">
<g clip-path="url(#clip0_259_8250)">
<path d="M0.702881 37.9416V27.9771H2.45997V37.9416H0.702881Z" fill="white" stroke="#D9D9D9" stroke-width="0.19"/>
<path d="M18.2089 27.9933V37.9579L16.4519 36.5912L10.124 31.6534V37.9579H8.36694V28.0238L10.124 29.3904L16.4519 34.3306V27.9816L18.2089 27.9957V27.9933Z" fill="white" stroke="#D9D9D9" stroke-width="0.19"/>
<path d="M31.6669 30.7384V30.6822C31.6669 30.1838 31.26 29.7719 30.7675 29.7719H26.7748C26.2823 29.7719 25.8754 30.1838 25.8754 30.6822V30.7384C25.8754 31.2369 26.2823 31.6487 26.7748 31.6487H30.319C31.2322 31.6487 32.0483 32.0466 32.6101 32.6737C32.6518 32.7158 32.6795 32.7603 32.7234 32.8024C33.1604 33.343 33.4263 34.0404 33.4263 34.7963C33.4263 36.5327 32.0345 37.9415 30.319 37.9415H27.2395C25.524 37.9415 24.1322 36.5327 24.1322 34.7963H25.8893C25.8893 35.5498 26.495 36.1629 27.2395 36.1629H30.319C31.0634 36.1629 31.683 35.5498 31.683 34.7963C31.683 34.0427 31.0634 33.4296 30.319 33.4296H26.7748C26.0581 33.4296 25.4107 33.1441 24.9321 32.6761C24.805 32.5474 24.694 32.4046 24.5946 32.2502C24.2987 31.8219 24.1299 31.2954 24.1299 30.7267V30.6705C24.1299 29.1892 25.3113 27.9793 26.7725 27.9793H30.7652C32.2287 27.9793 33.424 29.1892 33.424 30.6705V30.7267L31.6669 30.7407V30.7384Z" fill="white" stroke="#D9D9D9" stroke-width="0.19"/>
<path d="M47.4298 28.789C47.9083 29.2734 48.202 29.9427 48.202 30.6822C48.202 31.7634 47.5685 32.7042 46.6553 33.1301C46.4171 33.2447 46.1628 33.3149 45.8969 33.343H45.8114V33.3571H41.0996V37.9392H39.3425V27.9746H45.5432C46.2738 27.9746 46.935 28.2742 47.4136 28.7586L47.4274 28.7867L47.4298 28.789ZM45.9247 31.5083C46.2483 31.3656 46.4587 31.0379 46.4587 30.6822C46.4587 30.3546 46.29 30.1276 46.1905 30.027C46.0773 29.9123 45.8669 29.7719 45.5571 29.7719H41.0996V31.6089H45.5571C45.6842 31.6089 45.8091 31.5809 45.9224 31.5224V31.5083H45.9247Z" fill="white" stroke="#D9D9D9" stroke-width="0.19"/>
<path d="M55.8523 30.6682V31.5926H62.1802V33.3711H55.8523V35.2503C55.8523 35.7487 56.2593 36.1606 56.7517 36.1606H63.9373V37.9392H56.7517C55.2882 37.9392 54.1091 36.7293 54.1091 35.2479V30.6658C54.1091 29.1845 55.2905 27.9746 56.7517 27.9746H63.9373V29.7532H56.7517C56.2593 29.7532 55.8523 30.165 55.8523 30.6635V30.6682Z" fill="white" stroke="#D9D9D9" stroke-width="0.19"/>
<path d="M70.6858 32.9592C70.6858 34.7237 72.1053 36.1606 73.8509 36.1606H78.773V37.9392H73.8509C71.1366 37.9392 68.9287 35.7043 68.9287 32.9569C68.9287 30.2095 71.1366 27.9746 73.8509 27.9746H78.773V29.7532H73.8509C72.1076 29.7532 70.6858 31.19 70.6858 32.9569V32.9592Z" fill="white" stroke="#D9D9D9" stroke-width="0.19"/>
<path d="M94.5083 27.9933V29.7719H90.4716V37.9555H88.7145V29.7719H84.6779V27.9933H94.506H94.5083Z" fill="white" stroke="#D9D9D9" stroke-width="0.19"/>
<path d="M100.427 37.9415V27.977H102.184V37.9415H100.427Z" fill="white" stroke="#D9D9D9" stroke-width="0.19"/>
<path d="M117.582 32.9592C117.582 35.7066 115.374 37.9415 112.659 37.9415C109.945 37.9415 107.737 35.7066 107.737 32.9592C107.737 30.2118 109.945 27.977 112.659 27.977C115.374 27.977 117.582 30.2118 117.582 32.9592ZM115.825 32.9592C115.825 31.1947 114.405 29.7555 112.659 29.7555C110.914 29.7555 109.497 31.1924 109.497 32.9592C109.497 34.7261 110.916 36.1606 112.659 36.1606C114.403 36.1606 115.825 34.7237 115.825 32.9592Z" fill="white" stroke="#D9D9D9" stroke-width="0.19"/>
<path d="M132.979 27.9933V37.9579L131.222 36.5912L124.894 31.6534V37.9579H123.137V28.0238L124.894 29.3904L131.222 34.3306V27.9816L132.979 27.9957V27.9933Z" fill="white" stroke="#D9D9D9" stroke-width="0.19"/>
<path d="M4.24475 1.92832H12.0476L17.742 18.4992L19.3442 21.5344H13.8278L12.5817 18.0101L3.27836 18.0358L4.85511 18.8338L3.93958 21.5344H0L1.52589 18.5249L6.50816 3.70452L4.24707 1.92832H4.24475ZM6.12669 14.9749H11.5413L8.23751 5.32627L7.93233 9.54563L6.12669 14.9749Z" fill="url(#paint0_linear_259_8250)"/>
<path d="M25.7252 14.8672C25.7252 16.1192 26.2939 17.1068 27.4291 17.8252C28.1227 18.2722 28.8695 18.4945 29.6671 18.4945C30.904 18.4945 31.7941 17.9797 32.3351 16.95C32.6403 16.3486 32.7928 15.6559 32.7928 14.8649V4.13746L29.8705 1.87215H36.2007V14.8649C36.2007 17.6778 35.1742 19.6763 33.1258 20.8605C32.0415 21.4946 30.7861 21.8129 29.3642 21.8129C27.2118 21.8129 25.3137 21.1857 23.6699 19.9337C21.9243 18.5788 21.0435 16.8891 21.0273 14.8649V4.13746L18.105 1.87215H25.7298V14.8649L25.7252 14.8672Z" fill="url(#paint1_linear_259_8250)"/>
<path d="M40.2904 5.07587L36.8086 2.04065H53.6096V6.26001L51.6514 5.07587H45.3467L48.269 6.20852V18.6092L49.0319 21.6444H42.7526L43.541 18.6092V5.07587H40.2881H40.2904Z" fill="url(#paint2_linear_259_8250)"/>
<path d="M57.9745 12.0075H56.4232C56.5134 17.0155 60.5061 21.057 65.4537 21.1483V19.578C61.3616 19.4868 58.0647 16.1473 57.9745 12.0075Z" fill="url(#paint3_linear_259_8250)"/>
<path d="M56.4232 11.6612H57.9745C58.0647 7.52137 61.3616 4.18192 65.4537 4.09299V2.52038C60.5061 2.61165 56.5134 6.6555 56.4232 11.6612Z" fill="url(#paint4_linear_259_8250)"/>
<path d="M56.4233 12.0075H55.2743C55.2257 12.7611 54.6616 13.3695 53.9333 13.4748C54.0721 14.5185 54.3472 15.5155 54.7356 16.4539C55.45 16.1543 56.2915 16.4281 56.6915 17.1208C57.0915 17.8159 56.9158 18.6888 56.3077 19.1708C56.9343 19.9876 57.6672 20.7177 58.4787 21.3449C58.948 20.7271 59.8103 20.5352 60.4993 20.933C61.1906 21.3308 61.468 22.1803 61.179 22.9034C62.1107 23.2872 63.1003 23.554 64.1314 23.6851C64.2239 22.9853 64.7626 22.4307 65.4515 22.3231V21.146C60.5039 21.0547 56.5112 17.0132 56.421 12.0052L56.4233 12.0075Z" fill="url(#paint5_linear_259_8250)"/>
<path d="M64.0042 0C62.9754 0.140411 61.9882 0.418894 61.0611 0.812046C61.357 1.53516 61.0865 2.38699 60.4022 2.79185C59.7178 3.1967 58.8531 3.01884 58.3769 2.40337C57.57 3.03991 56.8464 3.77941 56.2291 4.60081C56.8394 5.07587 57.029 5.94876 56.636 6.64614C56.2429 7.34586 55.4037 7.62668 54.687 7.33415C54.3078 8.27725 54.0443 9.27885 53.9171 10.3249C54.6084 10.4185 55.1563 10.9638 55.2627 11.6612H56.4256C56.5158 6.6555 60.5085 2.61165 65.4561 2.52038V1.35731C64.7093 1.30817 64.1082 0.73716 64.0042 0Z" fill="url(#paint6_linear_259_8250)"/>
<path d="M65.9161 19.578V21.1483C70.8637 21.057 74.8565 17.0155 74.9467 12.0075H73.3953C73.3052 16.1473 70.0083 19.4868 65.9161 19.578Z" fill="url(#paint7_linear_259_8250)"/>
<path d="M65.9161 2.52038V4.09299C70.0083 4.18426 73.3052 7.52137 73.3953 11.6612H74.9467C74.8565 6.6555 70.8637 2.61165 65.9161 2.52038Z" fill="url(#paint8_linear_259_8250)"/>
<path d="M74.949 12.0075H76.098C76.1466 12.7611 76.7107 13.3695 77.439 13.4748C77.3002 14.5185 77.0251 15.5155 76.6367 16.4539C75.9223 16.1543 75.0808 16.4281 74.6808 17.1208C74.2808 17.8159 74.4565 18.6888 75.0646 19.1708C74.438 19.9876 73.7051 20.7177 72.8936 21.3449C72.4243 20.7271 71.5619 20.5352 70.873 20.933C70.1817 21.3308 69.9043 22.1803 70.1933 22.9034C69.2616 23.2872 68.272 23.554 67.2409 23.6851C67.1484 22.9853 66.6097 22.4307 65.9208 22.3231V21.146C70.8684 21.0547 74.8611 17.0132 74.9513 12.0052L74.949 12.0075Z" fill="url(#paint9_linear_259_8250)"/>
<path d="M67.3681 0C68.3969 0.140411 69.3841 0.418894 70.3112 0.812046C70.0152 1.53516 70.2857 2.38699 70.9701 2.79185C71.6544 3.1967 72.5191 3.01884 72.9954 2.40337C73.8022 3.03991 74.5259 3.77941 75.1432 4.60081C74.5328 5.07587 74.3432 5.94876 74.7363 6.64614C75.1293 7.34586 75.9685 7.62668 76.6852 7.33415C77.0644 8.27725 77.328 9.27885 77.4551 10.3249C76.7638 10.4185 76.2159 10.9638 76.1096 11.6612H74.9467C74.8565 6.6555 70.8637 2.61165 65.9161 2.52038V1.35731C66.6606 1.30817 67.2617 0.73716 67.3657 0L67.3681 0Z" fill="url(#paint10_linear_259_8250)"/>
<path d="M65.685 16.7043C68.3077 16.7043 70.4338 14.5522 70.4338 11.8975C70.4338 9.24283 68.3077 7.09077 65.685 7.09077C63.0624 7.09077 60.9363 9.24283 60.9363 11.8975C60.9363 14.5522 63.0624 16.7043 65.685 16.7043Z" fill="#777777"/>
<path d="M65.685 14.0037C66.8342 14.0037 67.7658 13.0607 67.7658 11.8975C67.7658 10.7343 66.8342 9.79135 65.685 9.79135C64.5358 9.79135 63.6042 10.7343 63.6042 11.8975C63.6042 13.0607 64.5358 14.0037 65.685 14.0037Z" fill="black"/>
<path d="M68.9402 10.1775C69.6297 10.1775 70.1887 9.61171 70.1887 8.91378C70.1887 8.21586 69.6297 7.65008 68.9402 7.65008C68.2507 7.65008 67.6918 8.21586 67.6918 8.91378C67.6918 9.61171 68.2507 10.1775 68.9402 10.1775Z" fill="white"/>
<path d="M64.1476 14.0037C64.4476 14.0037 64.6909 13.7575 64.6909 13.4537C64.6909 13.15 64.4476 12.9038 64.1476 12.9038C63.8475 12.9038 63.6042 13.15 63.6042 13.4537C63.6042 13.7575 63.8475 14.0037 64.1476 14.0037Z" fill="white"/>
<path d="M80.9879 4.30595L78.0656 2.04065H94.1822V6.26001L92.1986 5.07587H82.7935L85.6904 6.20852V10.0675H91.6645L90.6218 13.1027H85.6904V18.6092H91.9442L93.5464 15.574L95.0977 21.6468H80.2018L80.9902 18.6115V4.30595H80.9879Z" fill="url(#paint11_linear_259_8250)"/>
<path d="M103.331 13.4655L97.9414 4.25447V4.30595L94.7648 2.04065H102.135L105.566 8.85996L105.719 11.254L109.913 3.639L107.878 2.04299H114.208L108.031 13.3391V18.6139L108.819 21.6491H102.54L103.328 18.6139V13.4678L103.331 13.4655Z" fill="url(#paint12_linear_259_8250)"/>
<path d="M117.591 4.30595L114.668 2.04065H130.785V6.26001L128.801 5.07587H119.396L122.293 6.20852V10.0675H128.267L127.225 13.1027H122.293V18.6092H128.547L130.149 15.574L131.701 21.6468H116.805L117.593 18.6115V4.30595H117.591Z" fill="url(#paint13_linear_259_8250)"/>
</g>
<defs>
<linearGradient id="paint0_linear_259_8250" x1="10.0917" y1="2.12021" x2="9.67243" y2="21.0568" gradientUnits="userSpaceOnUse">
<stop stop-color="#F9E12E"/>
<stop offset="0.3" stop-color="#D0A733"/>
<stop offset="0.66" stop-color="#F9E12E"/>
<stop offset="1" stop-color="#D0A733"/>
</linearGradient>
<linearGradient id="paint1_linear_259_8250" x1="27.2765" y1="2.4455" x2="26.8573" y2="21.3821" gradientUnits="userSpaceOnUse">
<stop stop-color="#F9E12E"/>
<stop offset="0.3" stop-color="#D0A733"/>
<stop offset="0.66" stop-color="#F9E12E"/>
<stop offset="1" stop-color="#D0A733"/>
</linearGradient>
<linearGradient id="paint2_linear_259_8250" x1="45.2334" y1="3.01182" x2="44.8117" y2="21.9484" gradientUnits="userSpaceOnUse">
<stop stop-color="#F9E12E"/>
<stop offset="0.3" stop-color="#D0A733"/>
<stop offset="0.66" stop-color="#F9E12E"/>
<stop offset="1" stop-color="#D0A733"/>
</linearGradient>
<linearGradient id="paint3_linear_259_8250" x1="61.1835" y1="12.6628" x2="60.6411" y2="21.0866" gradientUnits="userSpaceOnUse">
<stop stop-color="#F9E12E"/>
<stop offset="0.3" stop-color="#D0A733"/>
<stop offset="0.66" stop-color="#F9E12E"/>
<stop offset="1" stop-color="#D0A733"/>
</linearGradient>
<linearGradient id="paint4_linear_259_8250" x1="56.4232" y1="7.09077" x2="65.4537" y2="7.09077" gradientUnits="userSpaceOnUse">
<stop stop-color="#F9E12E"/>
<stop offset="0.3" stop-color="#D0A733"/>
<stop offset="0.66" stop-color="#F9E12E"/>
<stop offset="1" stop-color="#D0A733"/>
</linearGradient>
<linearGradient id="paint5_linear_259_8250" x1="74.0289" y1="25.3606" x2="57.6408" y2="17.0577" gradientUnits="userSpaceOnUse">
<stop stop-color="#F9E12E"/>
<stop offset="0.3" stop-color="#D0A733"/>
<stop offset="0.66" stop-color="#F9E12E"/>
<stop offset="1" stop-color="#D0A733"/>
</linearGradient>
<linearGradient id="paint6_linear_259_8250" x1="59.1791" y1="5.49945" x2="75.4293" y2="17.0881" gradientUnits="userSpaceOnUse">
<stop stop-color="#F9E12E"/>
<stop offset="0.3" stop-color="#D0A733"/>
<stop offset="0.66" stop-color="#F9E12E"/>
<stop offset="1" stop-color="#D0A733"/>
</linearGradient>
<linearGradient id="paint7_linear_259_8250" x1="70.184" y1="12.6628" x2="70.7288" y2="21.0866" gradientUnits="userSpaceOnUse">
<stop stop-color="#F9E12E"/>
<stop offset="0.3" stop-color="#D0A733"/>
<stop offset="0.66" stop-color="#F9E12E"/>
<stop offset="1" stop-color="#D0A733"/>
</linearGradient>
<linearGradient id="paint8_linear_259_8250" x1="74.9467" y1="7.09077" x2="65.9161" y2="7.09077" gradientUnits="userSpaceOnUse">
<stop stop-color="#F9E12E"/>
<stop offset="0.3" stop-color="#D0A733"/>
<stop offset="0.66" stop-color="#F9E12E"/>
<stop offset="1" stop-color="#D0A733"/>
</linearGradient>
<linearGradient id="paint9_linear_259_8250" x1="57.3411" y1="25.3606" x2="73.7292" y2="17.0577" gradientUnits="userSpaceOnUse">
<stop stop-color="#F9E12E"/>
<stop offset="0.3" stop-color="#D0A733"/>
<stop offset="0.66" stop-color="#F9E12E"/>
<stop offset="1" stop-color="#D0A733"/>
</linearGradient>
<linearGradient id="paint10_linear_259_8250" x1="72.1908" y1="5.49945" x2="55.9406" y2="17.0881" gradientUnits="userSpaceOnUse">
<stop stop-color="#F9E12E"/>
<stop offset="0.3" stop-color="#D0A733"/>
<stop offset="0.66" stop-color="#F9E12E"/>
<stop offset="1" stop-color="#D0A733"/>
</linearGradient>
<linearGradient id="paint11_linear_259_8250" x1="86.31" y1="3.84961" x2="86.9401" y2="22.037" gradientUnits="userSpaceOnUse">
<stop stop-color="#F9E12E"/>
<stop offset="0.3" stop-color="#D0A733"/>
<stop offset="0.66" stop-color="#F9E12E"/>
<stop offset="1" stop-color="#D0A733"/>
</linearGradient>
<linearGradient id="paint12_linear_259_8250" x1="104.528" y1="3.21776" x2="105.158" y2="21.4052" gradientUnits="userSpaceOnUse">
<stop stop-color="#F9E12E"/>
<stop offset="0.3" stop-color="#D0A733"/>
<stop offset="0.66" stop-color="#F9E12E"/>
<stop offset="1" stop-color="#D0A733"/>
</linearGradient>
<linearGradient id="paint13_linear_259_8250" x1="122.871" y1="2.58123" x2="123.501" y2="20.771" gradientUnits="userSpaceOnUse">
<stop stop-color="#F9E12E"/>
<stop offset="0.3" stop-color="#D0A733"/>
<stop offset="0.66" stop-color="#F9E12E"/>
<stop offset="1" stop-color="#D0A733"/>
</linearGradient>
<clipPath id="clip0_259_8250">
<rect width="133" height="38" fill="white"/>
</clipPath>
</defs>
</svg>
